# xmcd
#
# Track frame offsets: 
#        150
#        19729
#        35728
#        49164
#        67920
#        86746
#        103683
#        116270
#        133742
#        150944
#        165726
#        183042
#
# Disc length: 2705 seconds
#
# Revision: 0
# Processed by: cddbd v1.5.2PL0 Copyright (c) Steve Scherf et al.
# Submitted via: ExactAudioCopy v1.0b4
#
DISCID=910a8f0c
DTITLE=The Cadillacs - Back In Time
DYEAR=2004
DGENRE=Blues
TTITLE0=Send Me Some Lovin'
TTITLE1=You Gave Me A Mountain
TTITLE2=Blue Monday
TTITLE3=Our Teenage LOve
TTITLE4=Mom I'm Still Your Little Boy
TTITLE5=Crawling On My Knees
TTITLE6=Rub It In
TTITLE7=Mathilda
TTITLE8=Reconsider Me
TTITLE9=Boogie Shoes
TTITLE10=The Rains Came
TTITLE11=Sweet Dreams
EXTD=
EXTT0=
EXTT1=
EXTT2=
EXTT3=
EXTT4=
EXTT5=
EXTT6=
EXTT7=
EXTT8=
EXTT9=
EXTT10=
EXTT11=
PLAYORDER=
